HIERARCHY
ROOT pelvis
{
  OFFSET 0 100 0
  CHANNELS 6 Xposition Yposition Zposition Zrotation Xrotation Yrotation
  JOINT pelvis_right_femur
  {
    OFFSET -10.78128 -3.44521 -0.5502486
    CHANNELS 3 Zrotation Xrotation Yrotation
    JOINT right_femur_tibia
    {
      OFFSET -0.8047443 -44.0398 -0.1307829
      CHANNELS 3 Zrotation Xrotation Yrotation
      JOINT right_tibia_foot
      {
        OFFSET 3.006224 -47.83518 -5
        CHANNELS 3 Zrotation Xrotation Yrotation
        End Site
        {
          OFFSET 0 -5 15
        }
      }
    }
  }
  JOINT pelvis_left_femur
  {
    OFFSET 10.78128 -3.44521 -0.5502486
    CHANNELS 3 Zrotation Xrotation Yrotation
    JOINT left_femur_tibia
    {
      OFFSET 0.8047443 -44.0398 -0.1307829
      CHANNELS 3 Zrotation Xrotation Yrotation
      JOINT left_tibia_foot
      {
        OFFSET -4.370144 -48.10324 -4.275266
        CHANNELS 3 Zrotation Xrotation Yrotation
        End Site
        {
          OFFSET 0 -5 15
        }
      }
    }
  }
  JOINT pelvis_spine1
  {
    OFFSET 0 6.468898 -3.129235
    CHANNELS 3 Zrotation Xrotation Yrotation
    JOINT spine1
    {
      OFFSET 0 23.15396 4.99043
      CHANNELS 3 Zrotation Xrotation Yrotation
      JOINT spine2
      {
        OFFSET 0 20.79997 -5.064912
        CHANNELS 3 Zrotation Xrotation Yrotation
        JOINT neck
        {
          OFFSET 0 14.38658 9.616178
          CHANNELS 3 Zrotation Xrotation Yrotation
          End Site
          {
            OFFSET 0 20 0
          }
        }
      }
      JOINT right_manubrium
      {
        OFFSET -5.722621 16.35077 3.967754
        CHANNELS 3 Zrotation Xrotation Yrotation
        JOINT right_clavicle
        {
          OFFSET -13.16364 1.694482 -4.693211
          CHANNELS 3 Zrotation Xrotation Yrotation
          JOINT right_humerus
          {
            OFFSET -28.5034 -0.3100689 -2.792744
            CHANNELS 3 Zrotation Xrotation Yrotation
            JOINT right_radius
            {
              OFFSET -25.15693 0.02248979 -1.271978
              CHANNELS 3 Zrotation Xrotation Yrotation
              End Site
              {
                OFFSET -15 0 0
              }
            }
          }
        }
      }
      JOINT left_manubrium
      {
        OFFSET 5.722621 16.35077 3.967754
        CHANNELS 3 Zrotation Xrotation Yrotation
        JOINT left_clavicle
        {
          OFFSET 13.16364 1.694482 -4.693211
          CHANNELS 3 Zrotation Xrotation Yrotation
          JOINT left_humerus
          {
            OFFSET 29.39168 -1.063119 -2.237045
            CHANNELS 3 Zrotation Xrotation Yrotation
            JOINT left_radius
            {
              OFFSET 24.59957 -0.9528479 0.9047498
              CHANNELS 3 Zrotation Xrotation Yrotation
              End Site
              {
                OFFSET 15 -0 -0
              }
            }
          }
        }
      }
    }
  }
}
MOTION
Frames: 19
Frame Time: 0.0416666666667
0 103.5113 0 0.4538326 -1.685786 0.0461075 3.557191 -16.01311 8.320934 -0 37.6959 -0 -7.160427 -16.5617 -4.616878 -6.036704 11.93854 -22.88732 -0 4.686346 -0 6.375369 -16.96169 25.02459 -2.156495 -3.350651 4.505293 2.214439 10.29081 -6.721926 1.715265 22.1387 6.413167 3.665153 -22.009 8.633609 6.642808 -18.46656 12.06451 81.77649 30.54266 -15.87441 -0 0 17.1042 -11.15762 11.17226 5.556928 8.02748 -20.58079 -0.9117098 -95.70452 22.15199 21.75845 0 0 -9.259899 15.37272 19.64712 -5.321808
0.1846712 103.378 1.720135 0.3741947 -0.7735889 0.1123023 4.137974 -19.42637 8.715901 -0 36.52976 -0 -6.309906 -15.6103 -4.345263 -6.213457 12.81558 -22.9314 -0 4.875195 -0 6.335388 -18.31047 24.95464 -2.189117 -3.073506 4.442087 2.361322 10.06945 -6.869313 1.652831 21.94897 6.530509 3.602293 -22.48704 8.762097 6.43809 -18.28622 11.91185 82.30598 31.44328 -16.17554 -0 0 16.30203 -10.73558 10.89697 5.578408 7.852386 -20.61314 -0.8210056 -94.77139 22.08009 20.97393 0 0 -10.80164 15.13369 18.60621 -4.814121
0.3856161 103.0791 3.670905 0.07083546 0.09101 0.227882 5.043328 -23.65293 8.190114 -0 33.04457 -0 -6.262795 -12.91344 -3.595757 -6.245573 13.67033 -22.1773 -0 5.428285 -0 6.386357 -19.88698 24.40148 -2.140319 -3.108412 4.490342 2.401636 10.0525 -6.965088 1.651887 21.78486 6.582784 3.585425 -22.78078 8.89555 6.405589 -18.35877 11.87546 82.60589 31.74578 -16.58731 -0 0 16.25841 -10.26307 10.75722 5.296941 7.893308 -20.70178 -0.7608357 -94.6398 22.05136 20.94586 0 0 -11.51088 15.29008 18.37744 -4.857201
0.5929485 102.6753 5.891546 -0.2148144 1.135222 0.4155016 5.853771 -27.05295 8.207646 -0 30.10125 -0 -5.665102 -12.0049 -3.288277 -6.152811 14.21516 -21.55531 -0 6.349155 -0 5.521328 -21.0439 23.23479 -2.125187 -2.997483 4.483299 2.498158 9.948141 -7.100566 1.620688 21.5935 6.665651 3.545009 -23.17213 9.027988 6.28739 -18.31112 11.78524 83.06222 32.33615 -17.00171 -0 0 15.8327 -9.806616 10.5652 5.155173 7.833096 -20.78562 -0.6909322 -94.09199 21.9709 20.5275 0 0 -12.6824 15.2825 17.73724 -4.658213
0.7982982 102.1904 8.489112 -0.5733936 2.135947 0.6871324 6.673908 -29.87126 8.186801 -0 27.07166 -0 -5.144528 -11.57645 -3.12201 -5.919016 14.61002 -20.76114 -0 8.000267 -0 4.067805 -21.77691 21.46247 -2.102454 -2.934727 4.490354 2.56926 9.883006 -7.211146 1.598381 21.43026 6.730883 3.517821 -23.49621 9.139726 6.208321 -18.30678 11.723 83.4363 32.78298 -17.37461 -0 0 15.56049 -9.411934 10.41493 5.009421 7.795479 -20.85577 -0.6411988 -93.73116 21.93222 20.2894 0 0 -13.58218 15.26547 17.27917 -4.4818
0.9916097 101.6782 11.51205 -0.961355 2.833317 1.034252 7.362785 -31.56484 8.041755 -0 24.58925 -0 -4.926642 -11.57984 -3.120312 -5.570714 14.8385 -19.91052 -0 10.4458 -0 2.291211 -21.8363 19.36865 -2.097145 -2.826046 4.470153 2.647499 9.806373 -7.316832 1.564393 21.29211 6.796735 3.493131 -23.79048 9.218166 6.120615 -18.25891 11.65981 83.80463 33.24357 -17.68666 -0 0 15.19328 -9.132055 10.28803 4.96817 7.715396 -20.90728 -0.6150038 -93.30533 21.91064 19.9811 0 0 -14.44937 15.11873 16.76471 -4.167879
1.16427 101.2081 14.99391 -1.367595 3.106558 1.43492 7.877233 -32.06043 7.619815 -0 22.67439 -0 -5.202581 -11.70537 -3.220435 -5.124344 14.88068 -18.96995 -0 13.80744 -0 0.4336353 -21.15583 17.13191 -2.10424 -2.707431 4.435745 2.712017 9.743795 -7.395231 1.52541 21.20262 6.853283 3.481894 -24.00736 9.251316 6.053344 -18.19868 11.61528 84.09223 33.61652 -17.89567 -0 0 14.84685 -9.007201 10.20557 5.02102 7.613186 -20.92677 -0.6237951 -92.95914 21.94482 19.73794 0 0 -15.07974 14.84176 16.33076 -3.740998
1.311519 100.8541 18.92134 -1.746836 2.880805 1.851247 8.177086 -31.30435 6.879892 -0 21.38066 -0 -6.038371 -11.75714 -3.369737 -4.621671 14.65349 -17.96136 -0 17.94952 -0 -1.200434 -19.76885 15.04579 -2.129278 -2.56042 4.379476 2.766798 9.688172 -7.447563 1.476696 21.16538 6.903674 3.48343 -24.14451 9.231823 5.998473 -18.10747 11.58637 84.30377 33.92127 -17.98796 -0 0 14.47449 -9.067173 10.16856 5.197647 7.475837 -20.91292 -0.6719762 -92.64657 22.02971 19.51101 0 0 -15.50466 14.40619 15.93407 -3.168223
1.432367 100.688 23.24315 -2.058912 2.183971 2.241129 8.291868 -29.38872 5.882189 -0 20.60854 -0 -7.359733 -11.65362 -3.519596 -4.095832 14.03976 -16.89042 -0 22.68182 -0 -2.436971 -17.80274 13.30061 -2.171353 -2.393442 4.308761 2.804318 9.644648 -7.464509 1.419773 21.18731 6.94484 3.49987 -24.18703 9.155256 5.961648 -17.99611 11.57825 84.4091 34.13065 -17.93807 -0 0 14.11461 -9.328721 10.17915 5.499602 7.306841 -20.85826 -0.7614522 -92.40534 22.1751 19.33935 0 0 -15.67019 13.80762 15.60394 -2.45122
1.528867 100.76 27.86899 -2.267578 1.107647 2.56555 8.277956 -26.49074 4.753766 -0 20.19528 -0 -8.99266 -11.41399 -3.625923 -3.575442 12.91442 -15.77579 -0 27.64964 -0 -3.187536 -15.46454 12.03325 -2.230123 -2.206147 4.230373 2.82236 9.611305 -7.443189 1.354778 21.26601 6.975437 3.528817 -24.13364 9.021219 5.938765 -17.86978 11.59039 84.39904 34.24549 -17.73231 -0 0 13.77954 -9.794452 10.23284 5.929148 7.104521 -20.75989 -0.8892043 -92.22899 22.37345 19.22349 0 0 -15.58985 13.04852 15.32602 -1.591344
1.604362 101.0822 32.6813 -2.354282 -0.2138767 2.795454 8.192517 -22.83699 3.640043 -0 19.94014 -0 -10.71017 -11.16305 -3.667063 -3.071014 11.17027 -14.63953 -0 32.42105 -0 -3.474933 -12.98342 11.29001 -2.303468 -2.004515 4.156773 2.816632 9.58655 -7.378691 1.283893 21.3968 6.991865 3.566503 -23.98419 8.832271 5.926688 -17.74338 11.62252 84.25815 34.26162 -17.35395 -0 0 13.50582 -10.45401 10.32201 6.478198 6.870381 -20.61247 -1.048204 -92.12603 22.61729 19.1842 0 0 -15.27044 12.14153 15.09643 -0.6007223
1.662745 101.6149 37.55198 -2.320159 -1.634004 2.913486 8.067747 -18.6762 2.658567 -0 19.63155 -0 -12.2877 -11.08339 -3.646976 -2.575945 8.755851 -13.50954 -0 36.48282 -0 -3.38613 -10.58824 11.05763 -2.388779 -1.793798 4.1019 2.78457 9.566116 -7.268562 1.209747 21.57 6.990096 3.606562 -23.74459 8.594094 5.91887 -17.633 11.67205 83.97889 34.18392 -16.79217 -0 0 13.32817 -11.2844 10.43616 7.133543 6.60549 -20.41236 -1.227606 -92.09196 22.89102 19.23302 0 0 -14.74477 11.1088 14.8989 0.5012862
1.709213 102.2646 42.36451 -2.184845 -3.017365 2.912958 7.907736 -14.24541 1.87747 -0 19.08265 -0 -13.54606 -11.37112 -3.592891 -2.070381 5.702332 -12.41561 -0 39.30809 -0 -3.041459 -8.475462 11.27554 -2.482908 -1.580969 4.080751 2.724345 9.544502 -7.111445 1.135913 21.7734 6.965284 3.641198 -23.42396 8.314985 5.908202 -17.55704 11.73531 83.55694 34.01966 -16.04016 -0 0 13.28546 -12.25129 10.56362 7.87522 6.312106 -20.1566 -1.413665 -92.12126 23.17631 19.382 0 0 -14.0539 9.981346 14.71777 1.686809
1.752159 102.8954 47.03558 -1.980234 -4.258079 2.795777 7.697669 -9.749862 1.31021 -0 18.17208 -0 -14.38148 -12.17372 -3.539521 -1.533422 2.149145 -11.3885 -0 40.43108 -0 -2.560292 -6.790632 11.85302 -2.582413 -1.373023 4.106728 2.636079 9.515374 -6.908882 1.066312 21.99242 6.912989 3.661876 -23.03561 8.005816 5.88697 -17.53224 11.80731 82.99681 33.78076 -15.10111 -0 0 13.40994 -13.31058 10.69299 8.677643 5.993697 -19.84533 -1.591065 -92.20142 23.45128 19.63473 0 0 -13.25208 8.799048 14.53542 2.919489
1.804618 103.3567 51.53056 -1.741635 -5.290926 2.571009 7.417266 -5.348085 0.9252381 -0 16.89402 -0 -14.7771 -13.52991 -3.5104 -0.959546 -1.652118 -10.46174 -0 39.55696 -0 -2.037408 -5.610391 12.68345 -2.683598 -1.176956 4.189367 2.52207 9.472977 -6.665796 1.004877 22.21164 6.830255 3.660852 -22.59657 7.679685 5.848503 -17.57123 11.88239 82.3133 33.48219 -13.99187 -0 0 13.72193 -14.4111 10.81453 9.510062 5.655921 -19.48304 -1.74481 -92.31608 23.69386 19.98604 0 0 -12.39956 7.608775 14.33723 4.15558
1.883666 103.5181 55.86757 -1.498745 -6.09574 2.254171 7.051966 -1.151866 0.6639463 -0 15.39908 -0 -14.7957 -15.31761 -3.504075 -0.375633 -5.359458 -9.677566 -0 36.66997 -0 -1.526834 -4.934308 13.66273 -2.782482 -0.998892 4.331735 2.387191 9.413839 -6.391423 0.9548702 22.41611 6.717282 3.632961 -22.12783 7.351434 5.788356 -17.67923 11.95472 81.53486 33.14197 -12.7481 -0 0 14.22115 -15.49881 10.92115 10.33831 5.307414 -19.08049 -1.862675 -92.44565 23.88422 20.41905 0 0 -11.55858 6.461436 14.11317 5.346621
2.00736 103.3054 60.10862 -1.269538 -6.695036 1.86634 6.599873 2.759754 0.4615508 -0 14.00145 -0 -14.55643 -17.23225 -3.491373 0.1496238 -8.594674 -9.091485 -0 32.10125 -0 -1.034799 -4.690234 14.70925 -2.874797 -0.8434924 4.528417 2.238766 9.338541 -6.09946 0.9182019 22.59301 6.578911 3.577495 -21.65388 7.036741 5.70569 -17.85153 12.01924 80.70448 32.78052 -11.42709 -0 0 14.88075 -16.52218 11.00875 11.12725 4.960394 -18.65567 -1.937783 -92.57065 24.00828 20.90563 0 0 -10.78608 5.407101 13.86012 6.444049
2.190444 102.724 64.34006 -1.059634 -7.146094 1.432176 6.075556 6.314795 0.2622136 -0 13.13009 -0 -14.20668 -18.81645 -3.423209 0.5138035 -11.01779 -8.76653 -0 26.51028 -0 -0.52199 -4.756971 15.77825 -2.95607 -0.7133144 4.764679 2.086074 9.252946 -5.807594 0.8948275 22.73307 6.425546 3.499499 -21.20188 6.750864 5.604019 -18.07232 12.07242 79.87862 32.42035 -10.10749 -0 0 15.64449 -17.43794 11.07587 11.84395 4.630613 -18.23373 -1.97065 -92.67443 24.06022 21.40789 0 0 -10.1279 4.489493 13.58205 7.404755
2.440743 101.8615 68.64764 -0.8672458 -7.528691 0.977081 5.511596 9.421544 0.02283485 -0 13.22252 -0 -13.90047 -19.55287 -3.24501 0.6114696 -12.3982 -8.751251 -0 20.75891 -0 0.08350592 -5.000093 16.86164 -3.02189 -0.6085192 5.017557 1.939442 9.168142 -5.53614 0.882533 22.83139 6.272783 3.409783 -20.79989 6.507212 5.491066 -18.31565 12.11292 79.12269 32.08538 -8.884033 -0 0 16.43013 -18.21551 11.12288 12.46076 4.336319 -17.8452 -1.969796 -92.74508 24.04352 21.8816 0 0 -9.615498 3.741105 13.28851 8.196213
